<svg xmlns="http://www.w3.org/2000/svg" viewBox="0 0 31.146 30.332"><title>google</title><path d="M18.483,13.8c-1.994.029-3.988.029-5.982.029-.569,0-1.154-.029-1.71,0-.119,0-.3.135-.3.21-.015,1.155-.015,2.309-.015,3.509H15.35a2.486,2.486,0,0,1-.165.584c-.735,2.22-3.029,3.314-5.5,2.91a5.36,5.36,0,0,1-4.393-6.388,5.692,5.692,0,0,1,.36-1.245,5.383,5.383,0,0,1,6-3.013,4.956,4.956,0,0,1,2.293,1.184L16.624,8.9a1.352,1.352,0,0,1-.224-.2A8.769,8.769,0,0,0,8.992,6.681a9.2,9.2,0,0,0-7.046,12.31,9.227,9.227,0,0,0,9.64,5.8A8.172,8.172,0,0,0,16.88,22.32,9.363,9.363,0,0,0,19.2,14.388c-.06-.494-.255-.584-.72-.584Zm9.071.285h-.6v-.54c0-.765.015-1.53,0-2.31,0-.119-.15-.344-.21-.344-.689-.03-1.395-.03-2.128-.03v3.193H21.392v.585c.031.57.046,1.155.09,1.724.555.031,1.11.06,1.694.06.466.015.945,0,1.455,0v3.149c.795-.015,1.529,0,2.324,0V16.427H30.1V14.089Z" fill="#fff" fill-rule="evenodd"/></svg>