<svg xmlns="http://www.w3.org/2000/svg" viewBox="0 0 30.806 30"><title>twitter</title><path d="M29.671,6.587a12.728,12.728,0,0,1-3.426.931A5.893,5.893,0,0,0,28.882,4.25a12.182,12.182,0,0,1-3.806,1.436A6,6,0,0,0,14.732,9.7a6.167,6.167,0,0,0,.174,1.343A16.954,16.954,0,0,1,2.589,4.9a5.8,5.8,0,0,0,1.832,7.848,5.78,5.78,0,0,1-2.7-.726V12.1a5.559,5.559,0,0,0,.41,2.116,5.957,5.957,0,0,0,4.391,3.632,5.881,5.881,0,0,1-1.58.221,5.381,5.381,0,0,1-1.122-.126A6.024,6.024,0,0,0,9.4,22.046a12.084,12.084,0,0,1-7.407,2.511c-.49,0-.947-.032-1.436-.079a17.241,17.241,0,0,0,9.158,2.637,16.619,16.619,0,0,0,16.6-13.17,16.187,16.187,0,0,0,.4-3.553V9.634a12.362,12.362,0,0,0,2.969-3.047Z" fill="#fff" fill-rule="evenodd"/></svg>